ply
format ascii 1.0
element vertex 16
property float x
property float y
property float z
element face 23
property list uchar int vertex_list
end_header
3.474 19.696 0
10.135 30.4125 0
13.4957 22.4178 0
23.3437 24.1548 0
26.8177 43.8508 0
35.7972 40.6638 0
26.0655 34.1765 0
24.3285 24.3285 0
44.0245 27.8025 0
37.3635 17.086 0
34.0028 25.0807 0
24.1548 23.3437 0
20.6808 3.6477 0
11.7013 6.8347 0
21.433 13.322 0
23.17 23.17 0
8 0 13 12 9 8 5 4 1 
3 1 5 4 
3 9 13 12 
3 0 2 1 
3 3 8 1 
3 2 3 1 
3 2 8 3 
3 6 5 1 
3 8 6 1 
3 8 5 6 
3 7 8 2 
3 0 7 2 
3 0 8 7 
3 9 8 10 
3 11 10 0 
3 9 11 0 
3 9 10 11 
3 14 9 0 
3 13 14 0 
3 13 9 14 
3 15 8 0 
3 10 15 0 
3 10 8 15 
